<?xml version="1.0" standalone="no"?>
<!DOCTYPE svg PUBLIC "-//W3C//DTD SVG 20010904//EN"
 "http://www.w3.org/TR/2001/REC-SVG-20010904/DTD/svg10.dtd">
<svg version="1.0" xmlns="http://www.w3.org/2000/svg"
 width="512.000000pt" height="512.000000pt" viewBox="0 0 512.000000 512.000000"
 preserveAspectRatio="xMidYMid meet">
<metadata>
Created by potrace 1.11, written by Peter Selinger 2001-2013
</metadata>
<g transform="translate(0.000000,512.000000) scale(0.100000,-0.100000)"
fill="#000000" stroke="none">
<path d="M3237 4800 l1852 -5 -682 -477 -682 -478 -1862 0 -1863 0 0 -1795 0
-1795 1863 0 1864 0 696 487 697 488 0 1792 0 1793 -1867 -2 -1868 -3 1852 -5z
m-1007 -1125 c227 -46 430 -144 573 -275 166 -152 279 -385 294 -602 l6 -88
-330 0 -330 0 -6 63 c-25 270 -253 424 -595 403 -213 -13 -364 -95 -430 -236
-37 -77 -38 -193 -3 -263 66 -135 211 -217 619 -353 422 -140 630 -247 808
-417 179 -170 264 -373 264 -632 0 -250 -66 -420 -225 -580 -213 -215 -514
-317 -935 -317 -286 0 -505 45 -716 146 -140 67 -219 120 -313 210 -172 166
-268 371 -287 614 l-7 82 329 0 330 0 15 -97 c28 -175 107 -292 242 -358 111
-54 174 -67 349 -72 231 -8 353 25 457 122 71 66 95 127 96 240 0 127 -21 183
-100 261 -79 80 -218 148 -485 240 -501 171 -703 276 -885 459 -130 132 -199
257 -231 423 -38 197 4 421 107 582 174 271 532 447 954 469 151 8 327 -2 435
-24z"/>
</g>
</svg>
